<?xml version="1.0" standalone="no"?>
<!DOCTYPE svg PUBLIC "-//W3C//DTD SVG 20010904//EN"
 "http://www.w3.org/TR/2001/REC-SVG-20010904/DTD/svg10.dtd">
<svg version="1.0" xmlns="http://www.w3.org/2000/svg"
 width="811.000000pt" height="852.000000pt" viewBox="0 0 811.000000 852.000000"
 preserveAspectRatio="xMidYMid meet">

<g transform="translate(0.000000,852.000000) scale(0.100000,-0.100000)"
fill="#000000" stroke="none">
<path d="M1060 7455 l-1055 -1055 1055 -1055 1055 -1055 303 303 303 302 -543
537 -543 538 1665 -3 c1656 -3 1666 -3 1795 -24 286 -48 490 -115 759 -250
252 -126 435 -260 647 -472 224 -225 380 -443 505 -706 337 -713 331 -1533
-17 -2234 -206 -416 -490 -740 -874 -996 -139 -93 -393 -223 -548 -280 -208
-76 -475 -131 -717 -145 -80 -5 -1010 -10 -2067 -10 l-1923 0 0 -425 0 -426
2053 4 c1883 2 2063 4 2182 20 501 67 944 218 1346 458 866 517 1459 1388
1623 2384 32 196 41 308 41 550 0 324 -26 539 -101 837 -150 597 -456 1132
-903 1579 -275 274 -521 451 -881 633 -411 208 -853 325 -1345 356 -94 6 -793
10 -1700 10 l-1540 1 543 537 544 537 -304 302 -303 303 -1055 -1055z"/>
</g>
</svg>
