<?xml version="1.0" standalone="no"?>
<!DOCTYPE svg PUBLIC "-//W3C//DTD SVG 20010904//EN"
 "http://www.w3.org/TR/2001/REC-SVG-20010904/DTD/svg10.dtd">
<svg version="1.0" xmlns="http://www.w3.org/2000/svg"
 width="751.000000pt" height="854.000000pt" viewBox="0 0 751.000000 854.000000"
 preserveAspectRatio="xMidYMid meet">

<g transform="translate(0.000000,854.000000) scale(0.100000,-0.100000)"
fill="#8694ac" stroke="none">
<path d="M3689 8508 c-147 -105 -2191 -2216 -2630 -2715 -558 -636 -901 -1235
-1021 -1787 -20 -89 -22 -131 -23 -356 0 -289 7 -342 66 -525 68 -209 170
-391 314 -565 86 -103 302 -312 405 -392 215 -167 455 -280 711 -335 118 -25
448 -25 568 0 276 59 576 246 793 493 45 52 86 94 90 94 16 0 7 -82 -27 -254
-99 -496 -213 -841 -419 -1271 -100 -207 -169 -329 -308 -541 -142 -217 -144
-227 -72 -304 l47 -50 777 0 c427 0 1142 3 1589 7 l813 6 25 34 c30 39 41 109
22 144 -7 13 -38 58 -69 99 -236 314 -512 906 -659 1415 -24 83 -100 415 -131
568 -34 170 -35 170 113 31 249 -233 334 -296 511 -380 199 -94 215 -97 505
-101 161 -3 277 0 318 7 230 40 580 218 812 412 360 304 595 681 667 1075 25
134 29 383 10 530 -87 657 -513 1390 -1334 2292 -354 388 -1039 1096 -1822
1881 -417 418 -530 520 -574 520 -13 0 -43 -14 -67 -32z m276 -500 c110 -112
339 -345 510 -518 1718 -1742 2049 -2125 2436 -2816 139 -248 242 -509 289
-729 31 -145 39 -426 15 -565 -46 -275 -184 -532 -420 -779 -164 -173 -341
-303 -538 -396 -219 -104 -345 -130 -584 -122 -190 6 -271 25 -418 97 -126 62
-204 122 -327 247 -156 158 -298 348 -393 528 -101 189 -125 215 -204 215 -48
0 -96 -37 -118 -89 -16 -37 -14 -88 13 -386 53 -577 205 -1205 401 -1659 78
-180 232 -491 314 -633 33 -56 59 -107 59 -112 0 -12 -2481 -16 -2492 -5 -3 3
25 58 64 122 161 271 333 653 441 987 157 481 246 939 282 1455 17 245 19 234
-49 290 -22 18 -42 25 -73 25 -37 0 -48 -6 -82 -40 -22 -22 -67 -92 -102 -155
-113 -209 -268 -418 -415 -560 -308 -295 -673 -399 -1057 -301 -440 113 -889
486 -1104 916 -78 155 -119 313 -132 503 -30 445 126 906 491 1450 284 423
566 746 1478 1687 1084 1119 1501 1545 1510 1545 4 0 96 -91 205 -202z"/>
</g>
</svg>
