<?xml version="1.0" standalone="no"?>
<!DOCTYPE svg PUBLIC "-//W3C//DTD SVG 20010904//EN"
 "http://www.w3.org/TR/2001/REC-SVG-20010904/DTD/svg10.dtd">
<svg version="1.0" xmlns="http://www.w3.org/2000/svg"
 width="2581.000000pt" height="869.000000pt" viewBox="0 0 2581.000000 869.000000"
 preserveAspectRatio="xMidYMid meet">

<g transform="translate(0.000000,869.000000) scale(0.100000,-0.100000)"
fill="#fff" stroke="none">
<path d="M17560 8680 c-680 -44 -1177 -218 -1496 -522 -147 -141 -245 -302
-296 -488 -20 -76 -23 -106 -22 -285 0 -189 2 -205 28 -290 73 -238 217 -410
441 -526 270 -140 732 -232 1420 -284 1334 -101 1542 -128 1740 -228 216 -108
315 -255 315 -466 0 -48 -7 -113 -15 -146 -57 -218 -288 -402 -635 -505 -372
-110 -950 -137 -1464 -69 -518 69 -1027 243 -1496 512 -52 30 -98 52 -102 48
-4 -3 -64 -134 -133 -291 -70 -157 -129 -288 -132 -292 -2 -4 33 -32 79 -62
335 -218 747 -378 1208 -470 713 -142 1644 -135 2235 15 535 137 924 402 1101
752 132 259 161 619 73 903 -132 428 -543 690 -1299 828 -232 42 -476 66
-1150 111 -452 30 -564 40 -740 66 -442 67 -672 196 -726 408 -19 75 -13 146
19 231 30 83 144 192 262 252 154 79 345 129 600 160 170 20 764 17 930 -5
479 -64 903 -188 1331 -392 l132 -62 143 270 c79 148 145 275 147 281 6 24
-359 209 -574 289 -236 89 -560 172 -824 211 -300 44 -801 65 -1100 46z"/>
<path d="M2330 8589 c-712 -47 -1316 -309 -1770 -768 -166 -167 -252 -282
-344 -461 -143 -278 -206 -552 -206 -895 0 -565 183 -1009 576 -1397 458 -452
1078 -699 1819 -726 896 -33 1545 146 2085 576 52 41 160 140 239 220 118 119
141 146 130 157 -17 15 -543 305 -554 305 -4 0 -43 -33 -85 -74 -329 -315
-725 -495 -1235 -562 -161 -21 -540 -24 -700 -5 -520 61 -901 228 -1194 523
-188 188 -304 406 -363 683 -29 135 -32 444 -5 578 56 279 171 492 377 697
262 261 568 421 959 500 376 76 869 62 1253 -35 357 -91 676 -266 929 -512
l55 -54 295 102 c162 56 298 105 302 109 4 4 -35 56 -86 116 -385 448 -870
731 -1473 858 -303 64 -667 87 -1004 65z"/>
<path d="M5515 8588 c-3 -7 -4 -967 -3 -2133 l3 -2120 350 0 350 0 3 1818 2
1817 123 0 123 0 1265 -1820 1264 -1820 408 0 c225 0 407 4 405 8 -1 5 -257
378 -567 831 -310 452 -561 824 -559 826 2 2 39 11 83 20 175 36 375 118 510
208 72 49 211 181 271 258 150 195 221 416 231 724 13 411 -96 735 -332 984
-219 232 -529 367 -920 400 -187 17 -3004 15 -3010 -1z m2770 -628 c282 -17
461 -83 595 -219 84 -84 129 -164 157 -279 24 -94 24 -314 0 -402 -60 -225
-218 -370 -468 -430 -114 -27 -310 -43 -326 -27 -23 24 -923 1346 -923 1356 0
14 750 15 965 1z"/>
<path d="M10420 7193 c0 -808 5 -1449 10 -1505 27 -282 132 -494 348 -708 299
-295 747 -501 1282 -589 390 -64 925 -71 1330 -15 398 54 731 163 1018 333
336 198 555 445 647 728 56 171 55 136 55 1711 l0 1452 -340 0 -339 0 -4
-1382 c-3 -1517 0 -1438 -62 -1591 -59 -144 -192 -301 -333 -392 -302 -194
-783 -289 -1372 -271 -300 9 -477 30 -684 82 -289 72 -467 164 -627 323 -126
126 -194 255 -224 426 -13 76 -15 270 -15 1446 l0 1359 -345 0 -345 0 0 -1407z"/>
<path d="M20975 8588 c-3 -7 -4 -272 -3 -588 l3 -575 355 0 355 0 0 585 0 585
-353 3 c-277 2 -354 0 -357 -10z"/>
<path d="M25100 7735 l0 -865 -2062 -2 -2063 -3 0 -1265 0 -1265 355 0 355 0
3 948 2 947 1705 0 1705 0 0 -950 0 -950 350 0 350 0 0 2135 0 2135 -350 0
-350 0 0 -865z"/>
<path d="M20100 3204 c-383 -36 -652 -136 -915 -339 -109 -85 -268 -252 -338
-358 -201 -299 -292 -665 -259 -1044 35 -403 174 -706 451 -984 215 -215 439
-342 736 -418 272 -70 655 -68 942 4 492 125 913 510 1077 984 70 200 80 275
80 556 0 221 -2 262 -22 351 -69 319 -195 549 -426 780 -190 190 -375 305
-615 384 -210 68 -504 103 -711 84z m357 -479 c241 -39 425 -130 596 -295 143
-136 234 -289 282 -473 60 -228 60 -476 0 -705 -50 -188 -137 -333 -288 -479
-218 -210 -464 -302 -809 -303 -150 0 -249 12 -367 46 -294 84 -543 293 -676
568 -170 350 -145 830 58 1145 174 268 438 443 751 495 111 19 340 19 453 1z"/>
<path d="M10 2920 l0 -230 1740 0 1740 0 0 230 0 230 -1740 0 -1740 0 0 -230z"/>
<path d="M3940 2725 l0 -425 260 0 260 0 0 425 0 425 -260 0 -260 0 0 -425z"/>
<path d="M6948 2523 l-3 -628 -1502 -3 -1503 -2 0 -920 0 -920 260 0 260 0 0
690 0 690 1243 -2 1242 -3 3 -687 2 -688 255 0 255 0 0 1550 0 1550 -255 0
-255 0 -2 -627z"/>
<path d="M7910 2035 l0 -1115 255 0 255 0 0 255 0 255 1105 0 1105 0 0 230 0
230 -1105 0 -1105 0 0 400 0 400 1100 0 1100 0 0 230 0 230 -1355 0 -1355 0 0
-1115z"/>
<path d="M12410 2725 l0 -425 255 0 255 0 0 195 0 195 1310 0 1310 0 0 230 0
230 -1565 0 -1565 0 0 -425z"/>
<path d="M15990 1600 l0 -1550 1100 0 1100 0 0 230 0 230 -845 0 -845 0 0
1320 0 1320 -255 0 -255 0 0 -1550z"/>
<path d="M22302 2623 l3 -528 258 -3 257 -2 0 300 0 301 1003 -3 c991 -3 1003
-4 1078 -25 271 -76 394 -252 376 -533 -15 -238 -150 -379 -407 -426 -61 -11
-315 -13 -1322 -14 l-1248 0 0 -820 0 -820 260 0 260 0 0 590 0 589 1058 4
c1039 3 1059 4 1156 25 385 84 615 266 715 567 42 129 55 231 48 409 -10 284
-83 464 -262 641 -149 148 -341 234 -595 265 -54 6 -546 10 -1362 10 l-1278 0
2 -527z"/>
<path d="M1490 1160 l0 -1110 255 0 255 0 0 1110 0 1110 -255 0 -255 0 0
-1110z"/>
<path d="M12410 975 l0 -925 255 0 255 0 0 695 0 695 910 0 910 0 0 230 0 230
-1165 0 -1165 0 0 -925z"/>
<path d="M7910 280 l0 -230 1355 0 1355 0 0 230 0 230 -1355 0 -1355 0 0 -230z"/>
</g>
</svg>
